<?xml version="1.0" encoding="UTF-8" standalone="no"?>
<svg
   xmlns:dc="http://purl.org/dc/elements/1.1/"
   xmlns:cc="http://creativecommons.org/ns#"
   xmlns:rdf="http://www.w3.org/1999/02/22-rdf-syntax-ns#"
   xmlns:svg="http://www.w3.org/2000/svg"
   xmlns="http://www.w3.org/2000/svg"
   xmlns:sodipodi="http://sodipodi.sourceforge.net/DTD/sodipodi-0.dtd"
   xmlns:inkscape="http://www.inkscape.org/namespaces/inkscape"
   id="Ebene_1"
   data-name="Ebene 1"
   viewBox="0 0 729.89001 245.09"
   version="1.1"
   sodipodi:docname="Zeichenfläche 1.svg"
   inkscape:version="0.92.2 2405546, 2018-03-11"
   width="729.89001"
   height="245.09">
  <metadata
     id="metadata3309">
    <rdf:RDF>
      <cc:Work
         rdf:about="">
        <dc:format>image/svg+xml</dc:format>
        <dc:type
           rdf:resource="http://purl.org/dc/dcmitype/StillImage" />
        <dc:title>Zeichenfläche 1</dc:title>
      </cc:Work>
    </rdf:RDF>
  </metadata>
  <sodipodi:namedview
     pagecolor="#ffffff"
     bordercolor="#666666"
     borderopacity="1"
     objecttolerance="10"
     gridtolerance="10"
     guidetolerance="10"
     inkscape:pageopacity="0"
     inkscape:pageshadow="2"
     inkscape:window-width="1600"
     inkscape:window-height="839"
     id="namedview3307"
     showgrid="false"
     inkscape:zoom="0.99702056"
     inkscape:cx="323.50218"
     inkscape:cy="176.66139"
     inkscape:window-x="0"
     inkscape:window-y="0"
     inkscape:window-maximized="1"
     inkscape:current-layer="Ebene_1"
     fit-margin-top="10"
     fit-margin-left="10"
     fit-margin-right="10"
     fit-margin-bottom="10" />
  <defs
     id="defs3226">
    <style
       id="style3224">.cls-1{fill:#fff;}.cls-2{fill:#c6c6c6;}.cls-3{fill:#ef7d00;}</style>
  </defs>
  <title
     id="title3228">Zeichenfläche 1</title>
  <path
     class="cls-1"
     d="m 231.99,112.9 h 0.3 a 1.94,1.94 0 0 0 1.44,-0.64 2.47,2.47 0 0 0 0.63,-1.8 V 93.68 a 2.33,2.33 0 0 0 -0.7,-1.94 2.82,2.82 0 0 0 -1.67,-0.57 v -0.26 h 7.11 v 0.26 a 2.9,2.9 0 0 0 -1.66,0.56 2.25,2.25 0 0 0 -0.73,2 v 16.17 a 2.37,2.37 0 0 0 0.73,2 3.86,3.86 0 0 0 2.37,0.56 h 1.91 a 5.47,5.47 0 0 0 2,-0.3 2.61,2.61 0 0 0 1.19,-0.92 8.75,8.75 0 0 0 0.89,-1.75 h 0.25 l -0.84,3.65 h -13.22 z"
     id="path3230"
     style="fill:#000000;fill-opacity:1"
     inkscape:connector-curvature="0" />
  <path
     class="cls-1"
     d="m 250.52,91.17 v -0.26 h 13.27 v 3.51 h -0.21 c 0,-1.88 -1.25,-2.81 -3.74,-2.81 h -4.64 v 10.09 h 4.08 a 5.69,5.69 0 0 0 2.16,-0.39 1.94,1.94 0 0 0 1.08,-1.79 h 0.23 v 5 h -0.23 a 2.69,2.69 0 0 0 -0.51,-1.32 2,2 0 0 0 -0.75,-0.62 1.77,1.77 0 0 0 -0.65,-0.15 7,7 0 0 0 -1.14,-0.09 h -4.27 v 7.89 a 3.33,3.33 0 0 0 0.34,1.54 c 0.23,0.44 0.75,0.65 1.58,0.65 h 3.3 a 4.87,4.87 0 0 0 2,-0.34 3.08,3.08 0 0 0 1.21,-1 5.61,5.61 0 0 0 0.75,-1.49 h 0.21 l -0.77,3.48 h -13.3 v -0.24 h 0.3 a 2.13,2.13 0 0 0 1.39,-0.57 2.35,2.35 0 0 0 0.68,-1.87 V 93.71 a 3.3,3.3 0 0 0 -0.46,-1.78 1.72,1.72 0 0 0 -1.61,-0.76 z"
     id="path3232"
     style="fill:#000000;fill-opacity:1"
     inkscape:connector-curvature="0" />
  <path
     class="cls-1"
     d="m 277.52,90.91 v 0.26 a 2.61,2.61 0 0 0 -1.69,0.56 2.26,2.26 0 0 0 -0.7,1.86 v 16.87 a 2.24,2.24 0 0 0 0.74,1.86 2.62,2.62 0 0 0 1.65,0.58 v 0.24 h -7.05 v -0.24 a 2.56,2.56 0 0 0 1.67,-0.57 2.25,2.25 0 0 0 0.7,-1.87 V 93.6 a 2.23,2.23 0 0 0 -0.7,-1.91 2.76,2.76 0 0 0 -1.67,-0.51 v -0.26 z"
     id="path3234"
     style="fill:#000000;fill-opacity:1"
     inkscape:connector-curvature="0" />
  <path
     class="cls-1"
     d="m 292.19,113.14 h -8.31 v -0.24 h 0.3 a 2,2 0 0 0 1.45,-0.61 2.48,2.48 0 0 0 0.61,-1.83 V 93.68 a 2.71,2.71 0 0 0 -0.56,-1.85 1.92,1.92 0 0 0 -1.53,-0.66 h -0.27 v -0.26 h 7.25 a 7.94,7.94 0 0 1 2.64,0.42 6.08,6.08 0 0 1 2,1.15 5.22,5.22 0 0 1 1.29,1.66 4.55,4.55 0 0 1 0.45,2 4.3,4.3 0 0 1 -1.3,3.26 7.72,7.72 0 0 1 -3.48,1.84 v 0.06 a 16.18,16.18 0 0 1 1.91,0.32 7,7 0 0 1 1.66,0.59 6,6 0 0 1 1.39,1 5.6,5.6 0 0 1 1,1.19 5.26,5.26 0 0 1 0.62,1.41 5.87,5.87 0 0 1 0.21,1.56 5,5 0 0 1 -0.9,3 6.37,6.37 0 0 1 -2,1.9 9.31,9.31 0 0 1 -4.43,0.87 z m -3.65,-12 h 1.45 a 6.33,6.33 0 0 0 2.53,-0.37 5.77,5.77 0 0 0 1,-0.66 4.41,4.41 0 0 0 1,-1.33 4.6,4.6 0 0 0 0.48,-2.19 5.68,5.68 0 0 0 -0.32,-1.89 4.84,4.84 0 0 0 -0.92,-1.59 4.19,4.19 0 0 0 -3.24,-1.51 7,7 0 0 0 -2,0.33 z m 2.28,0.67 h -2.28 v 8 a 4.56,4.56 0 0 0 0.16,1.33 1.62,1.62 0 0 0 0.86,0.93 5.88,5.88 0 0 0 6.55,-1.64 5.73,5.73 0 0 0 0.89,-3.16 5.81,5.81 0 0 0 -0.44,-2.29 4.79,4.79 0 0 0 -1.22,-1.71 5.51,5.51 0 0 0 -2,-1.08 8.08,8.08 0 0 0 -2.55,-0.4 z"
     id="path3236"
     style="fill:#000000;fill-opacity:1"
     inkscape:connector-curvature="0" />
  <path
     class="cls-1"
     d="m 327.79,90.91 v 0.26 a 4.75,4.75 0 0 0 -1.34,0.33 1.54,1.54 0 0 0 -0.76,0.85 5,5 0 0 0 -0.27,1.85 v 19.5 h -0.15 l -17.07,-19 v 13.67 a 17.07,17.07 0 0 0 0.14,2.53 3,3 0 0 0 0.39,1.2 2.37,2.37 0 0 0 1.95,0.84 v 0.24 h -5.59 v -0.24 a 2.81,2.81 0 0 0 1.46,-0.4 2.12,2.12 0 0 0 0.74,-1.3 14.11,14.11 0 0 0 0.21,-2.84 V 93.86 l -0.73,-0.83 a 6.07,6.07 0 0 0 -1.57,-1.43 5.21,5.21 0 0 0 -1.47,-0.45 v -0.26 h 4.18 l 16.81,18.84 V 95.4 a 16,16 0 0 0 -0.13,-2.42 2.08,2.08 0 0 0 -0.67,-1.28 2.78,2.78 0 0 0 -1.73,-0.53 v -0.26 z"
     id="path3238"
     style="fill:#000000;fill-opacity:1"
     inkscape:connector-curvature="0" />
  <path
     class="cls-1"
     d="m 341.1,90.91 v 0.26 a 2.61,2.61 0 0 0 -1.69,0.56 2.26,2.26 0 0 0 -0.7,1.86 v 16.87 a 2.24,2.24 0 0 0 0.74,1.86 2.6,2.6 0 0 0 1.65,0.58 v 0.24 h -7.05 v -0.24 a 2.56,2.56 0 0 0 1.67,-0.57 2.25,2.25 0 0 0 0.7,-1.87 V 93.6 a 2.23,2.23 0 0 0 -0.7,-1.91 2.76,2.76 0 0 0 -1.67,-0.51 v -0.26 z"
     id="path3240"
     style="fill:#000000;fill-opacity:1"
     inkscape:connector-curvature="0" />
  <path
     class="cls-1"
     d="m 363.17,91.76 h -10.64 a 6.75,6.75 0 0 0 -2.16,0.29 2.76,2.76 0 0 0 -1.33,1 4.87,4.87 0 0 0 -0.72,1.93 h -0.24 v -4.07 h 18.19 v 0.44 l -15.39,21 h 10.67 a 7.89,7.89 0 0 0 2.78,-0.38 3.23,3.23 0 0 0 1.45,-0.94 8.74,8.74 0 0 0 0.9,-1.56 h 0.24 l -1,3.71 h -18.13 v -0.47 z"
     id="path3242"
     style="fill:#000000;fill-opacity:1"
     inkscape:connector-curvature="0" />
  <path
     class="cls-1"
     d="m 372.2,101.49 h 8 v 1.24 h -8 z"
     id="path3244"
     style="fill:#000000;fill-opacity:1"
     inkscape:connector-curvature="0" />
  <path
     class="cls-1"
     d="m 392.37,90.91 v 0.26 a 2.65,2.65 0 0 0 -1.69,0.56 2.25,2.25 0 0 0 -0.69,1.87 v 16.87 a 2.24,2.24 0 0 0 0.74,1.86 2.57,2.57 0 0 0 1.64,0.58 v 0.24 h -7 v -0.24 a 2.53,2.53 0 0 0 1.66,-0.57 2.25,2.25 0 0 0 0.71,-1.87 V 93.6 a 2.24,2.24 0 0 0 -0.71,-1.91 2.73,2.73 0 0 0 -1.66,-0.51 v -0.26 z"
     id="path3246"
     style="fill:#000000;fill-opacity:1"
     inkscape:connector-curvature="0" />
  <path
     class="cls-1"
     d="m 420.86,90.91 v 0.26 a 4.58,4.58 0 0 0 -1.33,0.33 1.5,1.5 0 0 0 -0.76,0.85 5,5 0 0 0 -0.28,1.85 v 19.5 h -0.15 l -17.06,-19 v 13.67 a 17.39,17.39 0 0 0 0.13,2.53 2.87,2.87 0 0 0 0.4,1.2 2.36,2.36 0 0 0 1.94,0.84 v 0.24 h -5.57 v -0.24 a 2.78,2.78 0 0 0 1.46,-0.4 2.08,2.08 0 0 0 0.74,-1.3 14,14 0 0 0 0.22,-2.84 V 93.86 l -0.74,-0.83 a 5.91,5.91 0 0 0 -1.57,-1.43 5.13,5.13 0 0 0 -1.46,-0.45 v -0.26 h 4.18 l 16.78,18.86 V 95.4 a 17.51,17.51 0 0 0 -0.13,-2.42 2.14,2.14 0 0 0 -0.68,-1.28 2.76,2.76 0 0 0 -1.73,-0.53 v -0.26 z"
     id="path3248"
     style="fill:#000000;fill-opacity:1"
     inkscape:connector-curvature="0" />
  <path
     class="cls-1"
     d="m 438.45,95.19 h -0.25 a 4.87,4.87 0 0 0 -1.41,-2.84 4.27,4.27 0 0 0 -3.16,-1.21 4.36,4.36 0 0 0 -2.28,0.6 4.29,4.29 0 0 0 -1.56,1.65 5.09,5.09 0 0 0 -0.54,2.38 4.85,4.85 0 0 0 0.33,1.85 4,4 0 0 0 0.95,1.43 8.59,8.59 0 0 0 1.5,1.15 c 0.57,0.36 1.35,0.81 2.32,1.35 a 17.38,17.38 0 0 1 3.8,2.68 4.88,4.88 0 0 1 1.36,3.66 5.54,5.54 0 0 1 -0.72,2.71 5.61,5.61 0 0 1 -2.21,2.16 7.25,7.25 0 0 1 -3.67,0.85 9.41,9.41 0 0 1 -2.43,-0.29 12.71,12.71 0 0 1 -2.14,-0.83 2.44,2.44 0 0 0 -0.62,-0.15 0.4,0.4 0 0 0 -0.41,0.23 5.93,5.93 0 0 0 -0.27,1 h -0.25 V 108 h 0.25 a 6.33,6.33 0 0 0 2.12,3.7 5.92,5.92 0 0 0 3.81,1.25 5.1,5.1 0 0 0 2.71,-0.63 3.49,3.49 0 0 0 1.41,-1.54 4.59,4.59 0 0 0 0.4,-1.81 4.27,4.27 0 0 0 -1.14,-3.06 13.85,13.85 0 0 0 -3.47,-2.42 c -1.06,-0.58 -1.85,-1 -2.37,-1.36 a 9.81,9.81 0 0 1 -1.56,-1.25 5.69,5.69 0 0 1 -1.73,-4.23 6,6 0 0 1 0.83,-3 6.29,6.29 0 0 1 2.36,-2.3 6.83,6.83 0 0 1 3.45,-0.87 9.83,9.83 0 0 1 3,0.5 1.45,1.45 0 0 0 0.65,0.12 c 0.33,0 0.55,-0.23 0.67,-0.68 h 0.25 z"
     id="path3250"
     style="fill:#000000;fill-opacity:1"
     inkscape:connector-curvature="0" />
  <path
     class="cls-1"
     d="m 463.58,95.25 h -0.24 c -0.11,-1.45 -0.53,-2.39 -1.27,-2.82 a 5.28,5.28 0 0 0 -2.71,-0.64 h -4.42 v 18.67 a 2.18,2.18 0 0 0 2.41,2.44 v 0.24 h -7.08 v -0.24 a 2.69,2.69 0 0 0 1.68,-0.58 2.25,2.25 0 0 0 0.69,-1.86 V 91.79 h -4.42 a 5.25,5.25 0 0 0 -2.71,0.64 c -0.73,0.43 -1.15,1.37 -1.27,2.82 H 444 v -5.44 h 0.24 a 3.49,3.49 0 0 0 0.42,0.56 1.48,1.48 0 0 0 0.47,0.31 2.12,2.12 0 0 0 0.67,0.18 6.15,6.15 0 0 0 0.91,0 h 14.4 a 2.59,2.59 0 0 0 2.23,-1.1 h 0.24 z"
     id="path3252"
     style="fill:#000000;fill-opacity:1"
     inkscape:connector-curvature="0" />
  <path
     class="cls-1"
     d="m 476.44,90.91 v 0.26 a 2.63,2.63 0 0 0 -1.69,0.56 2.25,2.25 0 0 0 -0.69,1.86 v 16.87 a 2.21,2.21 0 0 0 0.74,1.86 2.57,2.57 0 0 0 1.64,0.58 v 0.24 h -7 v -0.24 a 2.56,2.56 0 0 0 1.67,-0.57 2.25,2.25 0 0 0 0.7,-1.87 V 93.6 a 2.23,2.23 0 0 0 -0.7,-1.91 2.76,2.76 0 0 0 -1.67,-0.51 v -0.26 z"
     id="path3254"
     style="fill:#000000;fill-opacity:1"
     inkscape:connector-curvature="0" />
  <path
     class="cls-1"
     d="m 501.79,95.25 h -0.25 q -0.16,-2.18 -1.26,-2.82 a 5.32,5.32 0 0 0 -2.72,-0.64 h -4.42 v 18.67 a 2.18,2.18 0 0 0 2.41,2.44 v 0.24 h -7.06 v -0.24 a 2.73,2.73 0 0 0 1.68,-0.58 2.25,2.25 0 0 0 0.69,-1.86 V 91.79 h -4.43 a 5.21,5.21 0 0 0 -2.7,0.64 c -0.73,0.43 -1.16,1.37 -1.28,2.82 h -0.24 v -5.44 h 0.24 a 3.49,3.49 0 0 0 0.42,0.56 1.48,1.48 0 0 0 0.47,0.31 2.19,2.19 0 0 0 0.67,0.18 6.21,6.21 0 0 0 0.92,0 h 14.39 a 2.57,2.57 0 0 0 2.23,-1.1 h 0.24 z"
     id="path3256"
     style="fill:#000000;fill-opacity:1"
     inkscape:connector-curvature="0" />
  <path
     class="cls-1"
     d="m 527.42,113.14 h -4.63 v -3.68 l -0.08,-0.06 a 6.47,6.47 0 0 1 -2.89,3.29 8.36,8.36 0 0 1 -4,1 8.17,8.17 0 0 1 -4.26,-1.13 7.39,7.39 0 0 1 -2.79,-2.79 7.11,7.11 0 0 1 -0.8,-2.46 20.46,20.46 0 0 1 -0.16,-2.64 V 93.65 a 3.31,3.31 0 0 0 -0.4,-1.68 c -0.27,-0.45 -0.91,-0.72 -1.91,-0.8 v -0.26 h 7 v 0.26 a 2.54,2.54 0 0 0 -2,0.89 3,3 0 0 0 -0.42,1.59 v 10.88 a 13.27,13.27 0 0 0 0.68,4.9 5.78,5.78 0 0 0 2.17,2.64 5.92,5.92 0 0 0 3.29,1 7.56,7.56 0 0 0 1.83,-0.27 6.12,6.12 0 0 0 2,-0.91 q 2.76,-1.87 2.76,-6 V 93.65 a 3,3 0 0 0 -0.43,-1.63 c -0.28,-0.48 -0.94,-0.76 -2,-0.85 v -0.26 h 7.11 v 0.26 c -1,0.05 -1.69,0.34 -2,0.86 a 3.22,3.22 0 0 0 -0.43,1.59 v 16.84 a 2.72,2.72 0 0 0 0.29,1.38 1.63,1.63 0 0 0 0.82,0.71 6.35,6.35 0 0 0 1.27,0.35 z"
     id="path3258"
     style="fill:#000000;fill-opacity:1"
     inkscape:connector-curvature="0" />
  <path
     class="cls-1"
     d="m 550.62,95.25 h -0.25 q -0.17,-2.18 -1.26,-2.82 a 5.32,5.32 0 0 0 -2.72,-0.64 h -4.42 v 18.67 a 2.18,2.18 0 0 0 2.41,2.44 v 0.24 h -7.07 v -0.24 a 2.73,2.73 0 0 0 1.68,-0.58 2.25,2.25 0 0 0 0.69,-1.86 V 91.79 h -4.43 a 5.21,5.21 0 0 0 -2.7,0.64 c -0.73,0.43 -1.16,1.37 -1.28,2.82 h -0.24 v -5.44 h 0.24 a 3.49,3.49 0 0 0 0.42,0.56 1.48,1.48 0 0 0 0.47,0.31 2.19,2.19 0 0 0 0.67,0.18 6.21,6.21 0 0 0 0.92,0 h 14.39 a 2.57,2.57 0 0 0 2.23,-1.1 h 0.25 z"
     id="path3260"
     style="fill:#000000;fill-opacity:1"
     inkscape:connector-curvature="0" />
  <path
     class="cls-1"
     d="m 564.59,91.17 v -0.26 h 13.33 v 3.38 h -0.24 a 3.33,3.33 0 0 0 -0.76,-1.86 2.81,2.81 0 0 0 -2.3,-0.82 h -5.34 v 10.06 h 5 a 2.51,2.51 0 0 0 1.93,-0.58 3,3 0 0 0 0.66,-1.6 h 0.24 v 5 h -0.24 a 2.74,2.74 0 0 0 -0.62,-1.57 2.59,2.59 0 0 0 -2,-0.61 h -5 v 8.11 a 2.49,2.49 0 0 0 0.63,1.77 2,2 0 0 0 1.53,0.67 h 0.38 v 0.24 h -7.2 v -0.24 h 0.3 a 1.93,1.93 0 0 0 1.5,-0.68 2.55,2.55 0 0 0 0.59,-1.76 V 93.65 a 2.42,2.42 0 0 0 -0.64,-2 2.32,2.32 0 0 0 -1.45,-0.52 z"
     id="path3262"
     style="fill:#000000;fill-opacity:1"
     inkscape:connector-curvature="0" />
  <path
     class="cls-1"
     d="m 605.43,113.14 h -4.64 v -3.68 l -0.07,-0.06 a 6.52,6.52 0 0 1 -2.89,3.29 8.36,8.36 0 0 1 -4,1 8.17,8.17 0 0 1 -4.26,-1.13 7.39,7.39 0 0 1 -2.79,-2.79 7.11,7.11 0 0 1 -0.8,-2.46 20.46,20.46 0 0 1 -0.16,-2.64 V 93.65 a 3.31,3.31 0 0 0 -0.4,-1.68 c -0.27,-0.45 -0.91,-0.72 -1.91,-0.8 v -0.26 h 7 v 0.26 a 2.51,2.51 0 0 0 -2,0.89 3,3 0 0 0 -0.42,1.59 v 10.88 a 13.27,13.27 0 0 0 0.68,4.9 5.78,5.78 0 0 0 2.17,2.64 5.9,5.9 0 0 0 3.29,1 7.63,7.63 0 0 0 1.83,-0.27 6,6 0 0 0 2,-0.91 q 2.76,-1.87 2.76,-6 V 93.65 a 3.12,3.12 0 0 0 -0.42,-1.63 c -0.28,-0.48 -0.94,-0.76 -2,-0.85 v -0.26 h 7.11 v 0.26 c -1,0.05 -1.69,0.34 -2,0.86 a 3.24,3.24 0 0 0 -0.44,1.59 v 16.84 a 2.72,2.72 0 0 0 0.3,1.38 1.6,1.6 0 0 0 0.81,0.71 6.47,6.47 0 0 0 1.28,0.35 z m -14,-27.1 a 1.42,1.42 0 0 1 1.36,1.42 1.44,1.44 0 0 1 -0.4,1 1.31,1.31 0 0 1 -1,0.44 1.49,1.49 0 0 1 -1.44,-1.45 1.32,1.32 0 0 1 0.43,-1 1.45,1.45 0 0 1 1.01,-0.41 z m 6.1,0 a 1.43,1.43 0 0 1 1,0.42 1.44,1.44 0 0 1 0,2 1.33,1.33 0 0 1 -1,0.45 1.36,1.36 0 0 1 -1,-0.45 1.41,1.41 0 0 1 0,-2 1.46,1.46 0 0 1 0.96,-0.45 z"
     id="path3264"
     style="fill:#000000;fill-opacity:1"
     inkscape:connector-curvature="0" />
  <path
     class="cls-1"
     d="m 610.95,91.23 h -0.31 v -0.32 h 7.7 a 7.77,7.77 0 0 1 3.15,0.58 5.08,5.08 0 0 1 2,1.46 5.53,5.53 0 0 1 1,1.86 6.27,6.27 0 0 1 0.31,1.93 5.44,5.44 0 0 1 -0.51,2.31 4.81,4.81 0 0 1 -1.55,1.91 5.94,5.94 0 0 1 -2.62,1.09 v 0.06 a 9.21,9.21 0 0 1 3.68,3.83 l 2,3.4 a 10.67,10.67 0 0 0 2.18,2.88 3.31,3.31 0 0 0 1.62,0.68 v 0.24 h -4 l -0.48,-0.64 c -0.16,-0.21 -0.32,-0.42 -0.49,-0.66 -0.17,-0.24 -0.25,-0.37 -0.44,-0.68 a 5.2,5.2 0 0 0 -0.4,-0.56 l -2.65,-4.39 a 11.34,11.34 0 0 0 -1.64,-2.19 6.46,6.46 0 0 0 -1.56,-1.19 4.3,4.3 0 0 0 -1.31,-0.46 8.92,8.92 0 0 0 -1.36,-0.09 v 8.14 a 2.18,2.18 0 0 0 2.41,2.44 v 0.24 h -7.08 v -0.24 a 3.25,3.25 0 0 0 1.18,-0.25 1.85,1.85 0 0 0 0.85,-0.75 2.65,2.65 0 0 0 0.34,-1.44 V 93.65 a 2.36,2.36 0 0 0 -0.64,-1.88 2.19,2.19 0 0 0 -1.38,-0.54 z m 4.36,10.5 h 1.27 a 8,8 0 0 0 3.26,-0.57 3.75,3.75 0 0 0 1.85,-1.64 5.43,5.43 0 0 0 0.57,-2.6 6.51,6.51 0 0 0 -0.51,-2.51 4.65,4.65 0 0 0 -1.74,-2.07 6.95,6.95 0 0 0 -4.7,-0.7 z"
     id="path3266"
     style="fill:#000000;fill-opacity:1"
     inkscape:connector-curvature="0" />
  <path
     class="cls-2"
     d="m 32,90.01 v 0.84 a 7.85,7.85 0 0 0 -5.28,1.85 q -2.18,1.84 -2.17,6.12 v 55.71 q 0,4.24 2.31,6.16 A 7.84,7.84 0 0 0 32,162.6 v 0.79 H 10 v -0.79 a 7.78,7.78 0 0 0 5.2,-1.87 c 1.47,-1.25 2.19,-3.32 2.19,-6.21 v -55.7 c 0,-3 -0.72,-5.14 -2.19,-6.27 A 8.24,8.24 0 0 0 10,90.85 v -0.84 z"
     id="path3268"
     style="fill:#565656;fill-opacity:1"
     inkscape:connector-curvature="0" />
  <path
     class="cls-2"
     d="m 39.11,90.85 v -0.84 h 26.68 a 49.22,49.22 0 0 1 10.35,1 42.22,42.22 0 0 1 8.48,2.71 35.75,35.75 0 0 1 6.48,3.71 31.16,31.16 0 0 1 4.69,4.17 36.69,36.69 0 0 1 5.61,7.74 37.92,37.92 0 0 1 3.46,9 41.08,41.08 0 0 1 1.15,9.77 39.07,39.07 0 0 1 -1.13,9.56 34.9,34.9 0 0 1 -3.25,8.4 34,34 0 0 1 -5.07,7 37,37 0 0 1 -6.85,5.68 31.37,31.37 0 0 1 -7.68,3.39 42.75,42.75 0 0 1 -11.74,1.29 H 39.11 v -0.83 h 0.94 a 5.35,5.35 0 0 0 4.86,-2.59 10.26,10.26 0 0 0 1.6,-5.49 V 99.12 A 11.21,11.21 0 0 0 45.64,94.44 5.92,5.92 0 0 0 43.31,91.7 6.44,6.44 0 0 0 40.05,90.85 Z m 14.56,2.64 v 58.16 c 0,2.85 0.44,4.95 1.3,6.3 a 6.14,6.14 0 0 0 4,2.62 40.94,40.94 0 0 0 8,0.59 44.23,44.23 0 0 0 12.76,-1.56 q 5.19,-1.56 10,-7 a 30.81,30.81 0 0 0 5.75,-9.86 40.52,40.52 0 0 0 2.21,-14.14 48.72,48.72 0 0 0 -1.75,-12.93 35,35 0 0 0 -5.32,-11.38 27.77,27.77 0 0 0 -10.3,-8.82 33.1,33.1 0 0 0 -15.15,-3.19 70.79,70.79 0 0 0 -11.5,1.21 z"
     id="path3270"
     style="fill:#565656;fill-opacity:1"
     inkscape:connector-curvature="0" />
  <path
     class="cls-2"
     d="m 148.05,104.11 h -0.76 a 16.38,16.38 0 0 0 -4.4,-9.35 14,14 0 0 0 -17,-2 13.27,13.27 0 0 0 -4.81,5.43 17.55,17.55 0 0 0 -1.7,7.87 17.05,17.05 0 0 0 1,6.11 13.6,13.6 0 0 0 3,4.7 27,27 0 0 0 4.67,3.82 c 1.79,1.18 4.2,2.66 7.25,4.46 a 54.29,54.29 0 0 1 11.88,8.84 q 4.25,4.41 4.24,12.08 a 19.18,19.18 0 0 1 -2.29,9 18.18,18.18 0 0 1 -6.9,7.15 21.8,21.8 0 0 1 -11.44,2.83 27.21,27.21 0 0 1 -7.59,-1 38.71,38.71 0 0 1 -6.69,-2.72 7.39,7.39 0 0 0 -1.93,-0.5 1.26,1.26 0 0 0 -1.3,0.75 24.41,24.41 0 0 0 -0.83,3.24 h -0.8 v -18.36 h 0.8 q 1.71,8.07 6.6,12.21 a 17.86,17.86 0 0 0 11.93,4.14 15.16,15.16 0 0 0 8.46,-2.1 11.13,11.13 0 0 0 4.4,-5.08 15.58,15.58 0 0 0 1.23,-6 14.43,14.43 0 0 0 -3.55,-10.03 43.68,43.68 0 0 0 -10.82,-8 c -3.33,-1.92 -5.79,-3.42 -7.39,-4.48 a 29.55,29.55 0 0 1 -4.88,-4.14 19.24,19.24 0 0 1 -3.94,-6 21.15,21.15 0 0 1 1.13,-17.87 20,20 0 0 1 7.35,-7.59 20.57,20.57 0 0 1 10.82,-2.92 28.76,28.76 0 0 1 9.37,1.65 4.47,4.47 0 0 0 2,0.39 c 1,0 1.74,-0.74 2.12,-2.24 h 0.76 z"
     id="path3272"
     style="fill:#565656;fill-opacity:1"
     inkscape:connector-curvature="0" />
  <path
     class="cls-3"
     d="m 191.47,10 c 0,0 0,0.88 0.08,2.53 0.08,1.65 0.12,4.07 0.21,7.15 0.13,6.15 0.4,15 0.57,25.5 0.08,5.28 0.16,11 0.26,17 0.1,6 0.13,12.43 0.2,19 0.07,6.57 0.08,13.41 0.13,20.34 0.05,6.93 0,14 0.05,21 0.05,7 0,14.07 -0.05,21 -0.05,6.93 -0.09,13.74 -0.13,20.33 -0.1,13.2 -0.26,25.51 -0.46,36.06 -0.2,10.55 -0.44,19.35 -0.57,25.51 -0.09,3.08 -0.16,5.5 -0.21,7.15 -0.05,1.65 -0.08,2.52 -0.08,2.52 0,0 0,-0.88 -0.08,-2.52 -0.08,-1.64 -0.12,-4.07 -0.21,-7.15 -0.13,-6.16 -0.4,-14.95 -0.57,-25.51 -0.17,-10.56 -0.36,-22.86 -0.46,-36.06 0,-6.59 -0.08,-13.41 -0.13,-20.33 -0.05,-6.92 0,-14 0,-21 0,-7 0,-14.07 0,-21 0,-6.93 0.09,-13.74 0.13,-20.34 0.04,-6.6 0.14,-13 0.2,-19 0.06,-6 0.18,-11.76 0.26,-17 0.17,-10.55 0.44,-19.35 0.57,-25.5 0.09,-3.08 0.16,-5.5 0.21,-7.15 0.05,-1.65 0.08,-2.53 0.08,-2.53 z"
     id="path3274"
     inkscape:connector-curvature="0"
     style="fill:#ef7d00" />
  <path
     class="cls-1"
     d="m 230.64,130.76 v -0.38 h 12.21 a 22.52,22.52 0 0 1 4.73,0.46 19.55,19.55 0 0 1 3.87,1.22 16.69,16.69 0 0 1 3,1.67 14.14,14.14 0 0 1 2.11,1.85 16.25,16.25 0 0 1 2.56,3.49 16.81,16.81 0 0 1 1.59,4.05 18.34,18.34 0 0 1 0.52,4.4 17.73,17.73 0 0 1 -0.51,4.31 15.68,15.68 0 0 1 -1.53,3.77 15.4,15.4 0 0 1 -2.31,3.15 17.34,17.34 0 0 1 -3.13,2.56 14.41,14.41 0 0 1 -3.51,1.52 19.6,19.6 0 0 1 -5.36,0.59 h -14.24 v -0.36 h 0.44 a 2.42,2.42 0 0 0 2.21,-1.17 4.57,4.57 0 0 0 0.74,-2.47 v -25 a 5,5 0 0 0 -0.4,-2.1 2.7,2.7 0 0 0 -1.07,-1.24 3,3 0 0 0 -1.48,-0.38 z m 6.66,1.19 v 26.18 a 5.28,5.28 0 0 0 0.59,2.84 2.76,2.76 0 0 0 1.84,1.18 18.54,18.54 0 0 0 3.66,0.27 20.58,20.58 0 0 0 5.81,-0.71 10.33,10.33 0 0 0 4.59,-3.11 14,14 0 0 0 2.63,-4.44 18.06,18.06 0 0 0 1,-6.35 21.91,21.91 0 0 0 -0.8,-5.83 15.63,15.63 0 0 0 -2.43,-5.12 12.63,12.63 0 0 0 -4.71,-4 15.28,15.28 0 0 0 -6.92,-1.44 32.32,32.32 0 0 0 -5.26,0.53 z"
     id="path3276"
     style="fill:#000000;fill-opacity:1"
     inkscape:connector-curvature="0" />
  <path
     class="cls-1"
     d="m 267.32,130.76 v -0.38 h 18.9 v 5.22 h -0.3 q 0,-4.17 -5.34,-4.17 h -6.61 v 15 h 5.82 a 7.68,7.68 0 0 0 3.07,-0.58 2.87,2.87 0 0 0 1.55,-2.67 h 0.38 v 7.49 h -0.33 a 4,4 0 0 0 -0.73,-2 2.85,2.85 0 0 0 -1.06,-0.91 2.51,2.51 0 0 0 -0.94,-0.23 9.37,9.37 0 0 0 -1.61,-0.13 h -6.1 v 11.73 a 4.93,4.93 0 0 0 0.49,2.29 c 0.32,0.64 1.07,1 2.25,1 h 4.71 a 6.63,6.63 0 0 0 2.8,-0.52 4.25,4.25 0 0 0 1.74,-1.44 8.81,8.81 0 0 0 1.06,-2.22 h 0.3 l -1.1,5.19 h -18.9 v -0.36 h 0.42 a 3,3 0 0 0 2,-0.86 3.5,3.5 0 0 0 1,-2.78 v -24.9 a 5.13,5.13 0 0 0 -0.66,-2.65 2.44,2.44 0 0 0 -2.29,-1.12 z"
     id="path3278"
     style="fill:#000000;fill-opacity:1"
     inkscape:connector-curvature="0" />
  <path
     class="cls-1"
     d="m 325.37,163.43 h -6.65 v -5.48 l -0.11,-0.09 a 9.54,9.54 0 0 1 -4.12,4.89 11.54,11.54 0 0 1 -5.7,1.55 11.28,11.28 0 0 1 -6.08,-1.68 10.69,10.69 0 0 1 -4,-4.15 10.92,10.92 0 0 1 -1.14,-3.65 31.23,31.23 0 0 1 -0.24,-3.94 v -16.44 a 5,5 0 0 0 -0.57,-2.49 c -0.38,-0.67 -1.29,-1.07 -2.72,-1.19 v -0.38 h 10 v 0.38 c -1.47,0.18 -2.4,0.62 -2.8,1.32 a 4.61,4.61 0 0 0 -0.61,2.36 v 16.16 a 20.53,20.53 0 0 0 1,7.29 8.56,8.56 0 0 0 3.1,3.92 8.07,8.07 0 0 0 4.7,1.42 10.24,10.24 0 0 0 2.6,-0.41 8.71,8.71 0 0 0 2.76,-1.32 q 3.94,-2.81 3.94,-9 v -18.06 a 4.8,4.8 0 0 0 -0.6,-2.42 c -0.4,-0.71 -1.35,-1.12 -2.84,-1.26 v -0.38 h 10.14 v 0.38 c -1.47,0.08 -2.41,0.5 -2.82,1.28 a 4.91,4.91 0 0 0 -0.63,2.35 v 25 a 4.25,4.25 0 0 0 0.42,2.06 2.36,2.36 0 0 0 1.17,1.06 9.2,9.2 0 0 0 1.81,0.52 z"
     id="path3280"
     style="fill:#000000;fill-opacity:1"
     inkscape:connector-curvature="0" />
  <path
     class="cls-1"
     d="m 359.57,136.82 h -0.35 c -0.16,-2.16 -0.76,-3.55 -1.81,-4.18 a 7.28,7.28 0 0 0 -3.87,-1 h -6.31 v 27.75 q 0,3.53 3.45,3.64 v 0.36 h -10.1 v -0.36 a 3.8,3.8 0 0 0 2.4,-0.87 3.44,3.44 0 0 0 1,-2.77 v -27.71 h -6.31 a 7.22,7.22 0 0 0 -3.86,1 c -1.05,0.63 -1.65,2 -1.82,4.18 h -0.35 v -8.08 h 0.35 a 5,5 0 0 0 0.6,0.83 2,2 0 0 0 0.67,0.46 3.21,3.21 0 0 0 0.95,0.27 9.89,9.89 0 0 0 1.31,0.08 h 20.54 a 3.66,3.66 0 0 0 3.18,-1.64 h 0.35 z"
     id="path3282"
     style="fill:#000000;fill-opacity:1"
     inkscape:connector-curvature="0" />
  <path
     class="cls-1"
     d="m 383.22,136.73 h -0.35 a 7.33,7.33 0 0 0 -2,-4.21 5.94,5.94 0 0 0 -4.51,-1.8 6,6 0 0 0 -3.25,0.89 6.07,6.07 0 0 0 -2.2,2.45 7.88,7.88 0 0 0 -0.77,3.54 7.59,7.59 0 0 0 0.46,2.75 6,6 0 0 0 1.37,2.12 12.49,12.49 0 0 0 2.13,1.72 c 0.82,0.53 1.92,1.2 3.31,2 a 24.48,24.48 0 0 1 5.43,4 7.46,7.46 0 0 1 1.95,5.41 8.54,8.54 0 0 1 -1.05,4.07 8.31,8.31 0 0 1 -3.15,3.22 10.05,10.05 0 0 1 -5.23,1.26 12.55,12.55 0 0 1 -3.47,-0.44 18.22,18.22 0 0 1 -3.06,-1.22 3.39,3.39 0 0 0 -0.88,-0.23 0.56,0.56 0 0 0 -0.59,0.34 9.38,9.38 0 0 0 -0.38,1.46 h -0.36 v -8.26 h 0.36 a 9.4,9.4 0 0 0 3,5.49 8.17,8.17 0 0 0 5.44,1.87 7,7 0 0 0 3.87,-0.95 5,5 0 0 0 2,-2.28 7.06,7.06 0 0 0 0.56,-2.7 6.42,6.42 0 0 0 -1.63,-4.54 20,20 0 0 0 -4.94,-3.6 c -1.52,-0.87 -2.64,-1.54 -3.38,-2 a 14.35,14.35 0 0 1 -2.23,-1.86 8.54,8.54 0 0 1 -1.79,-2.7 9,9 0 0 1 -0.67,-3.58 9.18,9.18 0 0 1 4.54,-7.89 9.5,9.5 0 0 1 4.93,-1.29 13.49,13.49 0 0 1 4.29,0.74 2,2 0 0 0 0.92,0.18 c 0.48,0 0.8,-0.34 1,-1 h 0.35 z"
     id="path3284"
     style="fill:#000000;fill-opacity:1"
     inkscape:connector-curvature="0" />
  <path
     class="cls-1"
     d="m 418.62,137.78 h -0.36 a 7.16,7.16 0 0 0 -2.19,-4.1 10.94,10.94 0 0 0 -4.08,-2.46 13.68,13.68 0 0 0 -4.3,-0.77 11.33,11.33 0 0 0 -5.14,1.2 12.32,12.32 0 0 0 -4.14,3.38 16.1,16.1 0 0 0 -2.71,5.25 21.88,21.88 0 0 0 -1,6.66 21.42,21.42 0 0 0 0.93,6.44 15.31,15.31 0 0 0 2.74,5.17 11.94,11.94 0 0 0 4.16,3.31 12.24,12.24 0 0 0 5.26,1.12 16,16 0 0 0 5.29,-1 13.59,13.59 0 0 0 5.21,-3.4 v 1.28 a 24.9,24.9 0 0 1 -5.24,3.38 14.35,14.35 0 0 1 -5.93,1.08 16.29,16.29 0 0 1 -6.84,-1.42 15.56,15.56 0 0 1 -5.22,-3.85 17.11,17.11 0 0 1 -3.23,-5.45 18.61,18.61 0 0 1 1.19,-15.2 17.46,17.46 0 0 1 6.18,-6.55 15.72,15.72 0 0 1 8.46,-2.41 22.77,22.77 0 0 1 6,0.87 l 2.24,0.65 a 5.59,5.59 0 0 0 1.1,0.14 1.74,1.74 0 0 0 1.12,-0.26 1.79,1.79 0 0 0 0.43,-0.93 h 0.34 z"
     id="path3286"
     style="fill:#000000;fill-opacity:1"
     inkscape:connector-curvature="0" />
  <path
     class="cls-1"
     d="m 449.57,145.5 v -11.06 a 4.06,4.06 0 0 0 -0.84,-2.65 3.19,3.19 0 0 0 -2.61,-1 v -0.38 h 10.1 v 0.38 a 3.1,3.1 0 0 0 -2.58,1 4.1,4.1 0 0 0 -0.82,2.66 v 25 q 0,3.64 3.4,3.64 v 0.36 h -10.1 v -0.36 a 3.45,3.45 0 0 0 2.53,-0.91 3.63,3.63 0 0 0 0.92,-2.68 v -13 H 431.4 v 12.92 a 3.67,3.67 0 0 0 0.93,2.68 3.35,3.35 0 0 0 2.51,1 v 0.36 h -10.05 v -0.36 a 3.2,3.2 0 0 0 2.5,-1 3.78,3.78 0 0 0 0.88,-2.68 v -25 q 0,-3.68 -3.38,-3.68 v -0.38 h 10.09 v 0.38 a 3.16,3.16 0 0 0 -2.61,1 4.05,4.05 0 0 0 -0.83,2.66 v 11.1 z"
     id="path3288"
     style="fill:#000000;fill-opacity:1"
     inkscape:connector-curvature="0" />
  <path
     class="cls-1"
     d="m 463.88,130.76 v -0.38 h 18.91 v 5.22 h -0.3 q 0,-4.17 -5.34,-4.17 h -6.61 v 15 h 5.81 a 7.72,7.72 0 0 0 3.08,-0.58 2.91,2.91 0 0 0 1.55,-2.67 h 0.32 v 7.49 h -0.32 a 4.24,4.24 0 0 0 -0.73,-2 2.87,2.87 0 0 0 -1.07,-0.91 2.43,2.43 0 0 0 -0.94,-0.23 9.29,9.29 0 0 0 -1.61,-0.13 h -6.09 v 11.73 a 5.06,5.06 0 0 0 0.48,2.29 c 0.32,0.64 1.07,1 2.25,1 h 4.72 a 6.62,6.62 0 0 0 2.79,-0.52 4.19,4.19 0 0 0 1.74,-1.44 8.48,8.48 0 0 0 1.06,-2.22 h 0.3 l -1.09,5.19 h -18.91 v -0.36 h 0.43 a 3,3 0 0 0 2,-0.86 3.53,3.53 0 0 0 1,-2.78 v -24.9 a 5.23,5.23 0 0 0 -0.65,-2.65 2.45,2.45 0 0 0 -2.3,-1.12 z"
     id="path3290"
     style="fill:#000000;fill-opacity:1"
     inkscape:connector-curvature="0" />
  <path
     class="cls-1"
     d="m 525.71,136.73 h -0.35 a 7.33,7.33 0 0 0 -2,-4.21 5.94,5.94 0 0 0 -4.51,-1.8 5.91,5.91 0 0 0 -5.45,3.34 7.88,7.88 0 0 0 -0.77,3.54 7.59,7.59 0 0 0 0.46,2.75 6,6 0 0 0 1.37,2.12 12.49,12.49 0 0 0 2.13,1.72 c 0.82,0.53 1.92,1.2 3.31,2 a 24.48,24.48 0 0 1 5.43,4 7.46,7.46 0 0 1 1.94,5.44 8.54,8.54 0 0 1 -1.05,4.07 8.17,8.17 0 0 1 -3.15,3.22 10.05,10.05 0 0 1 -5.23,1.26 12.55,12.55 0 0 1 -3.47,-0.44 18.22,18.22 0 0 1 -3.06,-1.22 3.39,3.39 0 0 0 -0.88,-0.23 0.56,0.56 0 0 0 -0.59,0.34 9.38,9.38 0 0 0 -0.38,1.46 h -0.36 v -8.29 h 0.36 a 9.4,9.4 0 0 0 3,5.49 8.17,8.17 0 0 0 5.44,1.87 7,7 0 0 0 3.87,-0.95 5,5 0 0 0 2,-2.28 7.06,7.06 0 0 0 0.56,-2.7 6.42,6.42 0 0 0 -1.63,-4.54 20,20 0 0 0 -4.94,-3.6 c -1.52,-0.87 -2.64,-1.54 -3.38,-2 a 14.35,14.35 0 0 1 -2.23,-1.86 8.54,8.54 0 0 1 -1.79,-2.7 9,9 0 0 1 -0.67,-3.58 9.17,9.17 0 0 1 1.18,-4.47 9,9 0 0 1 3.36,-3.42 9.5,9.5 0 0 1 4.93,-1.29 13.49,13.49 0 0 1 4.29,0.74 2,2 0 0 0 0.92,0.18 c 0.48,0 0.8,-0.34 1,-1 h 0.35 z"
     id="path3292"
     style="fill:#000000;fill-opacity:1"
     inkscape:connector-curvature="0" />
  <path
     class="cls-1"
     d="m 535.86,130.76 v -0.38 h 10.4 a 13.25,13.25 0 0 1 4.6,0.74 9.34,9.34 0 0 1 3.31,2 8.18,8.18 0 0 1 2,2.88 8.81,8.81 0 0 1 0.66,3.38 9.22,9.22 0 0 1 -0.61,3.33 7.64,7.64 0 0 1 -1.93,2.85 9.3,9.3 0 0 1 -3.44,2 14.78,14.78 0 0 1 -4.91,0.74 c -0.59,0 -1.72,-0.09 -3.4,-0.26 v 11.39 c 0,2.35 1.14,3.56 3.44,3.64 v 0.36 h -10.1 v -0.36 a 3.78,3.78 0 0 0 2.45,-0.89 3.52,3.52 0 0 0 1,-2.75 v -25 a 4.66,4.66 0 0 0 -0.35,-1.91 2.68,2.68 0 0 0 -0.81,-1.09 3.6,3.6 0 0 0 -1,-0.48 l -0.79,-0.2 z m 6.66,0.79 v 15.57 a 18.27,18.27 0 0 0 3.27,0.31 8.31,8.31 0 0 0 5.22,-1.65 q 2.14,-1.65 2.14,-6.11 a 9.44,9.44 0 0 0 -1.88,-6 6.89,6.89 0 0 0 -5.72,-2.37 15.87,15.87 0 0 0 -3.03,0.3 z"
     id="path3294"
     style="fill:#000000;fill-opacity:1"
     inkscape:connector-curvature="0" />
  <path
     class="cls-1"
     d="m 563.72,130.85 h -0.43 v -0.47 h 11 a 10.58,10.58 0 0 1 4.49,0.85 7.62,7.62 0 0 1 2.87,2.17 8.7,8.7 0 0 1 1.46,2.77 10,10 0 0 1 0.44,2.87 8.49,8.49 0 0 1 -0.72,3.44 7.32,7.32 0 0 1 -2.22,2.84 8.54,8.54 0 0 1 -3.73,1.62 v 0.09 q 2.83,1.42 5.25,5.69 l 2.86,5 a 15.89,15.89 0 0 0 3.11,4.29 4.62,4.62 0 0 0 2.32,1 v 0.36 h -5.77 q -0.37,-0.5 -0.69,-1 l -0.69,-1 c -0.14,-0.23 -0.36,-0.57 -0.63,-1 -0.27,-0.43 -0.45,-0.71 -0.51,-0.77 l -3.79,-6.53 a 16.76,16.76 0 0 0 -2.33,-3.24 9.24,9.24 0 0 0 -2.23,-1.78 6.4,6.4 0 0 0 -1.87,-0.68 12.3,12.3 0 0 0 -2,-0.13 v 12.09 q 0,3.53 3.45,3.64 v 0.36 h -10.07 v -0.36 a 4.82,4.82 0 0 0 1.68,-0.37 2.72,2.72 0 0 0 1.22,-1 4.15,4.15 0 0 0 0.48,-2.15 v -25 a 3.56,3.56 0 0 0 -0.92,-2.78 3,3 0 0 0 -2.03,-0.82 z m 6.22,15.61 h 1.85 a 11,11 0 0 0 4.67,-0.85 5.44,5.44 0 0 0 2.63,-2.43 8.32,8.32 0 0 0 0.82,-3.87 10,10 0 0 0 -0.73,-3.74 6.87,6.87 0 0 0 -2.49,-3.07 8,8 0 0 0 -4.72,-1.25 7.82,7.82 0 0 0 -2,0.21 z"
     id="path3296"
     style="fill:#000000;fill-opacity:1"
     inkscape:connector-curvature="0" />
  <path
     class="cls-1"
     d="m 611.27,129.98 10.26,28.31 a 14,14 0 0 0 1.54,3.18 3.38,3.38 0 0 0 1.39,1.25 6.24,6.24 0 0 0 1.68,0.35 v 0.36 h -11.19 v -0.36 a 8.66,8.66 0 0 0 2.65,-0.32 c 0.62,-0.21 0.93,-0.77 0.93,-1.7 a 6.76,6.76 0 0 0 -0.44,-2 0.69,0.69 0 0 1 -0.09,-0.27 L 614.95,150 h -11.88 l -2.72,8.13 a 8.88,8.88 0 0 0 -0.56,2.67 2.05,2.05 0 0 0 0.72,1.85 3.87,3.87 0 0 0 2,0.46 v 0.36 h -8.06 v -0.36 a 4.16,4.16 0 0 0 2.76,-1.27 9.36,9.36 0 0 0 1.81,-3.38 l 9.77,-28.48 z m -7.8,18.8 h 10.92 l -5.6,-15.69 h -0.09 z"
     id="path3298"
     style="fill:#000000;fill-opacity:1"
     inkscape:connector-curvature="0" />
  <path
     class="cls-1"
     d="m 655.79,137.78 h -0.36 a 7.16,7.16 0 0 0 -2.19,-4.1 10.94,10.94 0 0 0 -4.08,-2.46 13.68,13.68 0 0 0 -4.3,-0.77 11.33,11.33 0 0 0 -5.14,1.2 12.32,12.32 0 0 0 -4.14,3.38 16.11,16.11 0 0 0 -2.72,5.25 22.2,22.2 0 0 0 -1,6.66 21.42,21.42 0 0 0 0.93,6.44 15.31,15.31 0 0 0 2.8,5.22 11.94,11.94 0 0 0 4.16,3.31 12.23,12.23 0 0 0 5.25,1.12 16,16 0 0 0 5.3,-1 13.67,13.67 0 0 0 5.21,-3.4 v 1.28 a 24.9,24.9 0 0 1 -5.24,3.38 14.35,14.35 0 0 1 -5.93,1.08 16.29,16.29 0 0 1 -6.84,-1.42 15.56,15.56 0 0 1 -5.22,-3.85 16.92,16.92 0 0 1 -3.23,-5.45 18.5,18.5 0 0 1 1.19,-15.2 17.51,17.51 0 0 1 6.17,-6.55 15.78,15.78 0 0 1 8.47,-2.41 22.77,22.77 0 0 1 6,0.87 l 2.24,0.65 a 5.59,5.59 0 0 0 1.1,0.14 1.74,1.74 0 0 0 1.12,-0.26 1.79,1.79 0 0 0 0.43,-0.93 h 0.34 z"
     id="path3300"
     style="fill:#000000;fill-opacity:1"
     inkscape:connector-curvature="0" />
  <path
     class="cls-1"
     d="m 686.95,145.5 v -11.06 a 4.06,4.06 0 0 0 -0.84,-2.65 3.19,3.19 0 0 0 -2.61,-1 v -0.38 h 10.1 v 0.38 a 3.1,3.1 0 0 0 -2.58,1 4.1,4.1 0 0 0 -0.82,2.66 v 25 q 0,3.64 3.4,3.64 v 0.36 h -10.1 v -0.36 a 3.45,3.45 0 0 0 2.53,-0.91 3.63,3.63 0 0 0 0.92,-2.68 v -13 h -18.16 v 12.92 a 3.67,3.67 0 0 0 0.93,2.68 3.37,3.37 0 0 0 2.51,1 v 0.36 h -10.1 v -0.36 a 3.2,3.2 0 0 0 2.5,-1 3.78,3.78 0 0 0 0.88,-2.68 v -25 q 0,-3.68 -3.38,-3.68 v -0.38 h 10.09 v 0.38 a 3.16,3.16 0 0 0 -2.61,1 4.05,4.05 0 0 0 -0.83,2.66 v 11.1 z"
     id="path3302"
     style="fill:#000000;fill-opacity:1"
     inkscape:connector-curvature="0" />
  <path
     class="cls-1"
     d="m 699.84,130.76 v -0.38 h 18.95 v 5.22 h -0.3 q 0,-4.17 -5.34,-4.17 h -6.61 v 15 h 5.81 a 7.72,7.72 0 0 0 3.08,-0.58 2.91,2.91 0 0 0 1.55,-2.67 h 0.32 v 7.49 h -0.32 a 4.13,4.13 0 0 0 -0.73,-2 2.87,2.87 0 0 0 -1.07,-0.91 2.43,2.43 0 0 0 -0.94,-0.23 9.29,9.29 0 0 0 -1.61,-0.13 h -6.09 v 11.73 a 5.06,5.06 0 0 0 0.48,2.29 c 0.32,0.64 1.07,1 2.25,1 h 4.72 a 6.62,6.62 0 0 0 2.79,-0.52 4.19,4.19 0 0 0 1.74,-1.44 8.48,8.48 0 0 0 1.06,-2.22 h 0.31 l -1.1,5.19 h -18.95 v -0.36 h 0.44 a 3,3 0 0 0 2,-0.86 3.53,3.53 0 0 0 1,-2.78 v -24.9 a 5.23,5.23 0 0 0 -0.65,-2.65 2.45,2.45 0 0 0 -2.29,-1.12 z"
     id="path3304"
     style="fill:#000000;fill-opacity:1"
     inkscape:connector-curvature="0" />
</svg>
